2014015_C5_03_grf
version=1
nRows=34
nColumns=19
inDegrees=no
endheader
time	ground_force_1_vx	ground_force_1_vy	ground_force_1_vz	ground_force_1_px	ground_force_1_py	ground_force_1_pz	ground_force_1_mx	ground_force_1_my	ground_force_1_mz	ground_force_2_vx	ground_force_2_vy	ground_force_2_vz	ground_force_2_px	ground_force_2_py	ground_force_2_pz	ground_force_2_mx	ground_force_2_my	ground_force_2_mz
      0.81500000	    -40.63657671	    514.53453302	     42.32365564	     -0.16834587	     -0.00200000	      0.16354899	      0.00000000	     -0.73118045	      0.00000000	      0.00000000	      0.00000000	      0.00000000	      0.00000000	      0.00000000	      0.00000000	      0.00000000	      0.00000000	      0.00000000
      0.81600000	    -40.29958695	    514.11807537	     42.04954505	     -0.16787312	     -0.00200000	      0.16365877	      0.00000000	     -0.76122351	      0.00000000	      0.00000000	      0.00000000	      0.00000000	      0.00000000	      0.00000000	      0.00000000	      0.00000000	      0.00000000	      0.00000000
      0.81700000	    -39.96312618	    513.74724507	     41.77924544	     -0.16740803	     -0.00200000	      0.16377304	      0.00000000	     -0.79131061	      0.00000000	      0.00000000	      0.00000000	      0.00000000	      0.00000000	      0.00000000	      0.00000000	      0.00000000	      0.00000000	      0.00000000
      0.81800000	    -39.62702304	    513.41265440	     41.51231647	     -0.16694901	     -0.00200000	      0.16389081	      0.00000000	     -0.82138849	      0.00000000	      0.00000000	      0.00000000	      0.00000000	      0.00000000	      0.00000000	      0.00000000	      0.00000000	      0.00000000	      0.00000000
      0.81900000	    -39.29129988	    513.12315464	     41.24995619	     -0.16649753	     -0.00200000	      0.16401287	      0.00000000	     -0.85140321	      0.00000000	      0.00000000	      0.00000000	      0.00000000	      0.00000000	      0.00000000	      0.00000000	      0.00000000	      0.00000000	      0.00000000
      0.82000000	    -38.95582259	    512.86947727	     40.99151194	     -0.16605202	     -0.00200000	      0.16413826	      0.00000000	     -0.88132853	      0.00000000	      0.00000000	      0.00000000	      0.00000000	      0.00000000	      0.00000000	      0.00000000	      0.00000000	      0.00000000	      0.00000000
      0.82100000	    -38.62058558	    512.66023517	     40.73824435	     -0.16561390	     -0.00200000	      0.16426772	      0.00000000	     -0.91109593	      0.00000000	      0.00000000	      0.00000000	      0.00000000	      0.00000000	      0.00000000	      0.00000000	      0.00000000	      0.00000000	      0.00000000
      0.82200000	    -38.28549013	    512.48627901	     40.48930854	     -0.16518165	     -0.00200000	      0.16440037	      0.00000000	     -0.94070501	      0.00000000	      0.00000000	      0.00000000	      0.00000000	      0.00000000	      0.00000000	      0.00000000	      0.00000000	      0.00000000	      0.00000000
      0.82300000	    -37.95051761	    512.35589385	     40.24595842	     -0.16475664	     -0.00200000	      0.16453690	      0.00000000	     -0.97008445	      0.00000000	      0.00000000	      0.00000000	      0.00000000	      0.00000000	      0.00000000	      0.00000000	      0.00000000	      0.00000000	      0.00000000
      0.82400000	    -37.61558607	    512.26007938	     40.00718594	     -0.16433736	     -0.00200000	      0.16467645	      0.00000000	     -0.99925925	      0.00000000	      0.00000000	      0.00000000	      0.00000000	      0.00000000	      0.00000000	      0.00000000	      0.00000000	      0.00000000	      0.00000000
      0.82500000	    -37.28065267	    512.20712066	     39.77420032	     -0.16392518	     -0.00200000	      0.16481965	      0.00000000	     -1.02816304	      0.00000000	      0.00000000	      0.00000000	      0.00000000	      0.00000000	      0.00000000	      0.00000000	      0.00000000	      0.00000000	      0.00000000
      0.82600000	    -36.94567457	    512.18801737	     39.54586834	     -0.16351862	     -0.00200000	      0.16496564	      0.00000000	     -1.05684239	      0.00000000	      0.00000000	      0.00000000	      0.00000000	      0.00000000	      0.00000000	      0.00000000	      0.00000000	      0.00000000	      0.00000000
      0.82700000	    -36.61059029	    512.21087575	     39.32331875	     -0.16311901	     -0.00200000	      0.16511501	      0.00000000	     -1.08523986	      0.00000000	      0.00000000	      0.00000000	      0.00000000	      0.00000000	      0.00000000	      0.00000000	      0.00000000	      0.00000000	      0.00000000
      0.82800000	    -36.27538681	    512.26681471	     39.10533339	     -0.16272488	     -0.00200000	      0.16526696	      0.00000000	     -1.11341451	      0.00000000	      0.00000000	      0.00000000	      0.00000000	      0.00000000	      0.00000000	      0.00000000	      0.00000000	      0.00000000	      0.00000000
      0.82900000	    -35.93998589	    512.36361265	     38.89293373	     -0.16233755	     -0.00200000	      0.16542207	      0.00000000	     -1.14131644	      0.00000000	      0.00000000	      0.00000000	      0.00000000	      0.00000000	      0.00000000	      0.00000000	      0.00000000	      0.00000000	      0.00000000
      0.83000000	    -35.60438752	    512.49271631	     38.68487030	     -0.16195559	     -0.00200000	      0.16557965	      0.00000000	     -1.16900670	      0.00000000	      0.00000000	      0.00000000	      0.00000000	      0.00000000	      0.00000000	      0.00000000	      0.00000000	      0.00000000	      0.00000000
      0.83100000	    -35.26846878	    512.66163588	     38.48202825	     -0.16158029	     -0.00200000	      0.16574025	      0.00000000	     -1.19643932	      0.00000000	      0.00000000	      0.00000000	      0.00000000	      0.00000000	      0.00000000	      0.00000000	      0.00000000	      0.00000000	      0.00000000
      0.83200000	    -34.93223339	    512.86208630	     38.28317374	     -0.16121027	     -0.00200000	      0.16590326	      0.00000000	     -1.22367466	      0.00000000	      0.00000000	      0.00000000	      0.00000000	      0.00000000	      0.00000000	      0.00000000	      0.00000000	      0.00000000	      0.00000000
      0.83300000	    -34.59550254	    513.10139894	     38.08904663	     -0.16084681	     -0.00200000	      0.16606923	      0.00000000	     -1.25067637	      0.00000000	      0.00000000	      0.00000000	      0.00000000	      0.00000000	      0.00000000	      0.00000000	      0.00000000	      0.00000000	      0.00000000
      0.83400000	    -34.25828367	    513.37158680	     37.89848238	     -0.16048857	     -0.00200000	      0.16623759	      0.00000000	     -1.27750360	     -0.00000000	      0.00000000	      0.00000000	      0.00000000	      0.00000000	      0.00000000	      0.00000000	      0.00000000	      0.00000000	      0.00000000
      0.83500000	    -33.92031603	    513.67989182	     37.71208003	     -0.16013681	     -0.00200000	      0.16640892	      0.00000000	     -1.30413201	      0.00000000	      0.00000000	      0.00000000	      0.00000000	      0.00000000	      0.00000000	      0.00000000	      0.00000000	      0.00000000	      0.00000000
      0.83600000	    -33.58163312	    514.01847601	     37.52874881	     -0.15979023	     -0.00200000	      0.16658264	      0.00000000	     -1.33062113	     -0.00000000	      0.00000000	      0.00000000	      0.00000000	      0.00000000	      0.00000000	      0.00000000	      0.00000000	      0.00000000	      0.00000000
      0.83700000	    -33.24188665	    514.39464092	     37.34891675	     -0.15945011	     -0.00200000	      0.16675937	      0.00000000	     -1.35695860	      0.00000000	      0.00000000	      0.00000000	      0.00000000	      0.00000000	      0.00000000	      0.00000000	      0.00000000	      0.00000000	      0.00000000
      0.83800000	    -32.90115669	    514.80054855	     37.17160374	     -0.15911512	     -0.00200000	      0.16693850	      0.00000000	     -1.38319397	     -0.00000000	      0.00000000	      0.00000000	      0.00000000	      0.00000000	      0.00000000	      0.00000000	      0.00000000	      0.00000000	      0.00000000
      0.83900000	    -32.55900554	    515.24341106	     36.99707687	     -0.15878654	     -0.00200000	      0.16712070	      0.00000000	     -1.40932755	      0.00000000	      0.00000000	      0.00000000	      0.00000000	      0.00000000	      0.00000000	      0.00000000	      0.00000000	      0.00000000	      0.00000000
      0.84000000	    -32.21556544	    515.71553946	     36.82448342	     -0.15846304	     -0.00200000	      0.16730534	      0.00000000	     -1.43540273	     -0.00000000	      0.00000000	      0.00000000	      0.00000000	      0.00000000	      0.00000000	      0.00000000	      0.00000000	      0.00000000	      0.00000000
      0.84100000	    -31.87031485	    516.22387767	     36.65393516	     -0.15814587	     -0.00200000	      0.16749305	      0.00000000	     -1.46143467	      0.00000000	      0.00000000	      0.00000000	      0.00000000	      0.00000000	      0.00000000	      0.00000000	      0.00000000	      0.00000000	      0.00000000
      0.84200000	    -31.52343631	    516.76094532	     36.48471907	     -0.15783374	     -0.00200000	      0.16768320	      0.00000000	     -1.48745729	     -0.00000000	      0.00000000	      0.00000000	      0.00000000	      0.00000000	      0.00000000	      0.00000000	      0.00000000	      0.00000000	      0.00000000
      0.84300000	    -31.17429558	    517.33353734	     36.31680049	     -0.15752785	     -0.00200000	      0.16787636	      0.00000000	     -1.51349771	      0.00000000	      0.00000000	      0.00000000	      0.00000000	      0.00000000	      0.00000000	      0.00000000	      0.00000000	      0.00000000	      0.00000000
      0.84400000	    -30.82316183	    517.93432236	     36.14962399	     -0.15722692	     -0.00200000	      0.16807186	      0.00000000	     -1.53957652	     -0.00000000	      0.00000000	      0.00000000	      0.00000000	      0.00000000	      0.00000000	      0.00000000	      0.00000000	      0.00000000	      0.00000000
      0.84500000	    -30.46929929	    518.56994629	     35.98301411	     -0.15693213	     -0.00200000	      0.16827021	      0.00000000	     -1.56573402	      0.00000000	      0.00000000	      0.00000000	      0.00000000	      0.00000000	      0.00000000	      0.00000000	      0.00000000	      0.00000000	      0.00000000
      0.84600000	    -30.11306934	    519.23316717	     35.81657857	     -0.15664220	     -0.00200000	      0.16847076	      0.00000000	     -1.59197983	     -0.00000000	      0.00000000	      0.00000000	      0.00000000	      0.00000000	      0.00000000	      0.00000000	      0.00000000	      0.00000000	      0.00000000
      0.84700000	    -29.75365520	    519.93051171	     35.65002009	     -0.15635829	     -0.00200000	      0.16867395	      0.00000000	     -1.61836704	      0.00000000	      0.00000000	      0.00000000	      0.00000000	      0.00000000	      0.00000000	      0.00000000	      0.00000000	      0.00000000	      0.00000000
      0.84800000	    -29.39152531	    520.65479755	     35.48309281	     -0.15607913	     -0.00200000	      0.16887921	      0.00000000	     -1.64489195	     -0.00000000	      0.00000000	      0.00000000	      0.00000000	      0.00000000	      0.00000000	      0.00000000	      0.00000000	      0.00000000	      0.00000000
